# File created by Blade
# Date/Time:  Wed Sep 24 20:26:02 2014
# Frame Rate: 120.000 fps
#------------------------------------------------------
:FULLY-SPECIFIED
:DEGREES
1109
root -4.794524 32.879393 -6.076778 352.647247 -64.313476 -345.919958
Spine -8.686812 13.633918 1.896713
Head 0.158408 50.021340 2.991842
LeftShoulder -17.236801 22.185369 1.855015
LeftArm 17.083051 16.805114 -76.353365
LeftForeArm 3.057126 -0.000000 19.411764
LeftHand -28.200754 -0.000000 10.667890
LeftHandThumb1 -26.253704 0.000000 33.147579
RightShoulder -19.468278 8.609643 -27.662889
RightArm -19.207995 -26.279186 89.586456
RightForeArm -24.663370 -0.000000 20.290179
RightHand -6.623341 0.000000 14.133092
RightHandThumb1 -24.326973 -0.000000 -32.862282
LeftUpLeg -9.984616 3.654290 -1.997792
LeftLeg 0.502688 -0.000000 -0.000000
LeftFoot -4.254350 1.745274 -25.961810
LeftToeBase -6.085740 -0.000000 0.000000
RightUpLeg 2.734555 -14.731565 -2.794816
RightLeg 0.634370 -0.000000 -0.000000
RightFoot -14.010713 -16.273255 -1.590306
RightToeBase 0.560008 -0.000000 -0.000000
1110
root -4.808864 32.873132 -6.024980 352.839560 -64.134538 -346.115716
Spine -8.698755 13.629866 1.916233
Head 0.265556 49.852834 3.024890
LeftShoulder -17.241540 22.191648 1.842802
LeftArm 17.015898 16.895910 -76.517478
LeftForeArm 3.195137 -0.000000 19.272688
LeftHand -28.443926 0.000000 10.944894
LeftHandThumb1 -26.253704 0.000000 33.147579
RightShoulder -19.427142 8.615134 -27.684170
RightArm -19.139908 -26.356551 89.765756
RightForeArm -24.771383 -0.000000 20.378373
RightHand -6.566213 0.000000 14.157869
RightHandThumb1 -24.326973 -0.000000 -32.862282
LeftUpLeg -9.958121 3.371157 -1.894320
LeftLeg 0.392408 -0.000000 -0.000000
LeftFoot -4.231218 1.294763 -26.333156
LeftToeBase -5.942343 -0.000000 0.000000
RightUpLeg 2.768991 -14.842921 -2.820228
RightLeg 0.728589 -0.000000 -0.000000
RightFoot -14.084302 -16.340817 -1.560396
RightToeBase 0.529085 -0.000000 -0.000000
1111
root -4.823333 32.866861 -5.973073 352.994884 -63.982253 -346.270889
Spine -8.693059 13.678280 1.886175
Head 0.159009 49.749832 2.931296
LeftShoulder -17.233498 22.178791 1.837373
LeftArm 16.971432 17.068774 -76.610879
LeftForeArm 3.017873 -0.000000 19.174235
LeftHand -28.086330 -0.000000 10.316814
LeftHandThumb1 -26.253704 0.000000 33.147579
RightShoulder -19.408037 8.598186 -27.629016
RightArm -19.055606 -26.474030 89.895403
RightForeArm -24.772248 -0.000000 20.523242
RightHand -6.625941 -0.000000 14.095248
RightHandThumb1 -24.326973 -0.000000 -32.862282
LeftUpLeg -9.969099 3.276206 -1.852890
LeftLeg 0.346727 -0.000000 -0.000000
LeftFoot -4.169977 0.743735 -26.536428
LeftToeBase -5.860788 -0.000000 0.000000
RightUpLeg 2.815819 -14.884001 -2.849896
RightLeg 0.762538 -0.000000 -0.000000
RightFoot -14.068395 -16.557972 -1.625856
RightToeBase 0.371648 -0.000000 -0.000000
1112
root -4.838594 32.860095 -5.919976 353.175813 -63.828213 -346.448615
Spine -8.707905 13.702964 1.855990
Head 0.203842 49.646332 3.024608
LeftShoulder -17.214868 22.213410 1.844880
LeftArm 16.954558 17.297518 -76.687432
LeftForeArm 2.894909 -0.000000 19.066346
LeftHand -28.252738 0.000000 10.561614
LeftHandThumb1 -26.253704 0.000000 33.147579
RightShoulder -19.364608 8.714886 -27.599661
RightArm -19.140859 -26.634881 90.103747
RightForeArm -24.782603 -0.000000 20.620390
RightHand -6.464574 0.000000 13.946543
RightHandThumb1 -24.326973 -0.000000 -32.862282
LeftUpLeg -9.997512 3.236857 -1.807837
LeftLeg 0.307721 -0.000000 -0.000000
LeftFoot -4.038661 0.050997 -26.704748
LeftToeBase -6.010298 -0.000000 0.000000
RightUpLeg 2.867672 -14.870515 -2.866332
RightLeg 0.836392 -0.000000 -0.000000
RightFoot -14.228375 -16.590315 -1.330792
RightToeBase 0.487304 -0.000000 -0.000000
1113
root -4.853333 32.853339 -5.868195 353.372609 -63.655828 -346.646326
Spine -8.695346 13.761317 1.850373
Head 0.149374 49.477685 2.965482
LeftShoulder -17.181413 22.199760 1.852158
LeftArm 16.914788 17.550687 -76.747683
LeftForeArm 2.731908 0.000000 19.013910
LeftHand -28.135514 -0.000000 10.417874
LeftHandThumb1 -26.253704 0.000000 33.147579
RightShoulder -19.420453 8.711281 -27.575964
RightArm -19.050764 -26.716204 90.237478
RightForeArm -24.869714 0.000000 20.717979
RightHand -6.457835 0.000000 13.911400
RightHandThumb1 -24.326973 -0.000000 -32.862282
LeftUpLeg -10.012681 3.029187 -1.731731
LeftLeg 0.247320 -0.000000 -0.000000
LeftFoot -3.900466 -0.471085 -26.987852
LeftToeBase -6.212632 -0.000000 0.000000
RightUpLeg 2.914157 -14.954573 -2.881224
RightLeg 0.895809 -0.000000 -0.000000
RightFoot -14.290228 -16.704388 -1.303691
RightToeBase 0.488140 -0.000000 -0.000000
1114
root -4.871246 32.846245 -5.811251 353.562354 -63.503789 -346.855702
Spine -8.669539 13.764411 1.871644
Head 0.084919 49.405869 2.909290
LeftShoulder -17.161620 22.215421 1.827624
LeftArm 16.823693 17.658126 -76.863940
LeftForeArm 2.819983 0.000000 18.929838
LeftHand -28.071744 0.000000 10.452434
LeftHandThumb1 -26.253704 0.000000 33.147579
RightShoulder -19.442348 8.731152 -27.543259
RightArm -18.941270 -26.912866 90.366141
RightForeArm -24.848381 -0.000000 20.808869
RightHand -6.474594 -0.000000 13.965075
RightHandThumb1 -24.326973 -0.000000 -32.862282
LeftUpLeg -10.005306 2.849593 -1.663107
LeftLeg 0.195656 -0.000000 -0.000000
LeftFoot -3.808204 -0.936128 -27.235183
LeftToeBase -6.216927 -0.000000 0.000000
RightUpLeg 2.982007 -15.014926 -2.905003
RightLeg 0.931414 -0.000000 -0.000000
RightFoot -14.266076 -16.919464 -1.402891
RightToeBase 0.352331 -0.000000 -0.000000
1115
root -4.885958 32.838278 -5.754373 353.778921 -63.356887 -347.075324
Spine -8.657132 13.796163 1.898628
Head 0.036984 49.271309 2.884225
LeftShoulder -17.177853 22.206411 1.814520
LeftArm 16.772849 17.719821 -77.026533
LeftForeArm 2.793248 0.000000 18.835420
LeftHand -27.783034 -0.000000 10.147102
LeftHandThumb1 -26.253704 0.000000 33.147579
RightShoulder -19.463806 8.756035 -27.530752
RightArm -18.853413 -27.125237 90.548788
RightForeArm -24.799905 -0.000000 20.838360
RightHand -6.379298 -0.000000 13.865104
RightHandThumb1 -24.326973 -0.000000 -32.862282
LeftUpLeg -10.011758 2.510906 -1.569501
LeftLeg 0.122121 -0.000000 -0.000000
LeftFoot -3.669393 -1.255725 -27.721290
LeftToeBase -6.413941 -0.000000 0.000000
RightUpLeg 3.038439 -14.966688 -2.903795
RightLeg 0.999124 -0.000000 -0.000000
RightFoot -14.423119 -16.999302 -1.153112
RightToeBase 0.502997 -0.000000 -0.000000
1116
root -4.906889 32.830569 -5.694302 353.856589 -63.233114 -347.202860
Spine -8.586287 13.851945 1.864683
Head -0.031684 49.179047 2.886232
LeftShoulder -17.112623 22.209193 1.837469
LeftArm 16.666502 17.768673 -77.172528
LeftForeArm 2.824439 -0.000000 18.809784
LeftHand -27.700104 -0.000000 9.904824
LeftHandThumb1 -26.253704 0.000000 33.147579
RightShoulder -19.500084 8.783361 -27.465996
RightArm -18.748158 -27.369515 90.717952
RightForeArm -24.734873 -0.000000 20.856608
RightHand -6.331930 -0.000000 13.858661
RightHandThumb1 -24.326973 -0.000000 -32.862282
LeftUpLeg -9.949333 2.238173 -1.521551
LeftLeg 0.068989 -0.000000 -0.000000
LeftFoot -3.562057 -1.598006 -27.981167
LeftToeBase -6.270915 -0.000000 0.000000
RightUpLeg 3.154462 -15.008369 -2.964331
RightLeg 1.037106 -0.000000 -0.000000
RightFoot -14.425469 -17.175821 -1.198435
RightToeBase 0.406828 -0.000000 -0.000000
1117
root -4.926395 32.821398 -5.632755 354.088786 -63.091297 -347.463677
Spine -8.554715 13.859099 1.920642
Head -0.135638 49.060520 2.851917
LeftShoulder -17.129326 22.182421 1.837699
LeftArm 16.641864 17.833116 -77.344229
LeftForeArm 2.938193 -0.000000 18.608805
LeftHand -27.722265 -0.000000 9.937611
LeftHandThumb1 -26.253704 0.000000 33.147579
RightShoulder -19.553261 8.798474 -27.433787
RightArm -18.610803 -27.642854 90.852276
RightForeArm -24.699464 -0.000000 20.896040
RightHand -6.320605 -0.000000 13.897934
RightHandThumb1 -24.326973 -0.000000 -32.862282
LeftUpLeg -9.970333 1.984620 -1.429465
LeftLeg 0.133839 -0.000000 -0.000000
LeftFoot -3.411916 -2.089741 -28.400154
LeftToeBase -6.404535 -0.000000 0.000000
RightUpLeg 3.232183 -15.012126 -2.961727
RightLeg 1.103583 -0.000000 -0.000000
RightFoot -14.504626 -17.316786 -1.106042
RightToeBase 0.415850 -0.000000 -0.000000
1118
root -4.942351 32.811904 -5.576483 354.345725 -62.993650 -347.747343
Spine -8.511931 13.898660 1.978937
Head -0.228712 48.987544 2.856302
LeftShoulder -17.088236 22.195167 1.845265
LeftArm 16.560453 17.814389 -77.528224
LeftForeArm 3.078610 -0.000000 18.551650
LeftHand -27.793698 -0.000000 9.659845
LeftHandThumb1 -26.253704 0.000000 33.147579
RightShoulder -19.543169 8.853624 -27.373332
RightArm -18.502759 -27.832969 90.973060
RightForeArm -24.681422 -0.000000 20.935717
RightHand -6.268476 -0.000000 13.923097
RightHandThumb1 -24.326973 -0.000000 -32.862282
LeftUpLeg -9.987621 1.671615 -1.305283
LeftLeg 0.161012 -0.000000 -0.000000
LeftFoot -3.182969 -2.595183 -28.932898
LeftToeBase -6.493021 -0.000000 0.000000
RightUpLeg 3.281104 -14.944909 -2.925833
RightLeg 1.194635 -0.000000 -0.000000
RightFoot -14.651214 -17.428089 -0.929460
RightToeBase 0.570603 -0.000000 -0.000000
